<?xml version="1.0" encoding="UTF-8" standalone="no"?>
<!DOCTYPE svg PUBLIC "-//W3C//DTD SVG 1.1//EN" "http://www.w3.org/Graphics/SVG/1.1/DTD/svg11.dtd">
<svg width="100%" height="100%" viewBox="0 0 592 720" version="1.1" xmlns="http://www.w3.org/2000/svg" xmlns:xlink="http://www.w3.org/1999/xlink" xml:space="preserve" style="fill-rule:evenodd;clip-rule:evenodd;stroke-linejoin:round;stroke-miterlimit:1.41421;">
    <clipPath id="_clip1">
        <path d="M543.699,465.508L27.223,681.375L27.223,63.363L543.699,465.508"/>
    </clipPath>
    <g clip-path="url(#_clip1)">
        <path d="M619.555,474.871L619.555,691.527L-186.98,691.527L-186.98,474.871L160.29,474.871C188.077,492.921 221.233,503.406 256.84,503.406C292.445,503.406 325.6,492.921 353.387,474.871L619.555,474.871Z" style="fill:rgb(0,79,163);"/>
    </g>
    <clipPath id="_clip2">
        <path d="M543.699,465.508L27.223,681.375L27.223,63.363L543.699,465.508"/>
    </clipPath>
    <g clip-path="url(#_clip2)">
        <path d="M92.759,258.215C84.134,279.085 79.375,301.959 79.375,325.945C79.375,388.352 111.585,443.233 160.29,474.871L-186.98,474.871L-186.98,258.215L92.759,258.215ZM619.555,474.871L353.387,474.871C402.091,443.233 434.301,388.352 434.301,325.945C434.301,301.959 429.542,279.085 420.917,258.215L619.555,258.215L619.555,474.871Z" style="fill:rgb(239,62,51);"/>
    </g>
    <clipPath id="_clip3">
        <path d="M543.699,465.508L27.223,681.375L27.223,63.363L543.699,465.508"/>
    </clipPath>
    <g clip-path="url(#_clip3)">
        <path d="M619.555,268.953L424.951,268.953C401.21,198.906 334.914,148.492 256.84,148.492C178.762,148.492 112.466,198.906 88.725,268.953L-186.98,268.953L-186.98,52.301L619.555,52.301L619.555,268.953Z" style="fill:rgb(0,127,97);"/>
    </g>
    <path d="M143.301,342.285L143.301,249.355L143.621,249.355L183.937,332.25C188.308,340.992 191.707,343.258 198.992,343.258C206.93,343.258 210.652,338.563 210.652,332.414L210.652,228.957L195.43,228.957L195.43,319.945L195.106,319.945L158.68,244.66C153.012,233.164 150.098,227.984 141.356,227.984C133.907,227.984 128.079,231.871 128.079,241.91L128.079,342.285L143.301,342.285" style="fill:rgb(0,79,163);"/>
    <path d="M240.625,342.285L240.625,269.433C240.625,251.624 250.176,241.261 264.102,241.261C278.028,241.261 287.579,251.624 287.579,269.433L287.579,276.554L246.778,276.554L246.778,290.8L287.579,290.8L287.579,342.284L302.798,342.284L302.798,270.401C302.798,243.526 286.122,227.01 264.103,227.01C242.084,227.01 225.408,243.526 225.408,270.401L225.408,342.284L240.625,342.284" style="fill:rgb(0,79,163);"/>
    <rect x="319.484" y="228.957" width="15.219" height="113.328" style="fill:rgb(0,79,163);"/>
    <path d="M421.961,228.957L409.981,228.957C373.231,228.957 350.727,258.098 350.727,285.625C350.727,318.004 374.204,342.285 405.774,342.285L421.962,342.285L421.962,328.043L405.774,328.043C389.098,328.043 366.59,315.09 366.59,285.625C366.59,261.336 385.695,243.203 411.598,243.203L421.961,243.203L421.961,228.957" style="fill:rgb(0,79,163);"/>
    <path d="M429.898,342.285L471.507,342.285C491.581,342.285 502.913,330.144 502.913,312.012C502.913,277.528 445.925,277.528 445.925,256.637C445.925,247.899 451.265,243.203 459.687,243.203L497.898,243.203L497.898,228.957L461.793,228.957C443.981,228.957 430.703,238.996 430.703,257.449C430.703,291.129 487.695,290.156 487.695,313.304C487.695,323.183 482.191,328.042 468.754,328.042L429.899,328.042L429.899,342.285" style="fill:rgb(0,79,163);"/>
</svg>
