<?xml version="1.0" standalone="no"?>
<!DOCTYPE svg PUBLIC "-//W3C//DTD SVG 20010904//EN"
 "http://www.w3.org/TR/2001/REC-SVG-20010904/DTD/svg10.dtd">
<svg version="1.0" xmlns="http://www.w3.org/2000/svg"
 width="720.000000pt" height="720.000000pt" viewBox="0 0 720.000000 720.000000"
 preserveAspectRatio="xMidYMid meet">
<metadata>
Created by potrace 1.11, written by Peter Selinger 2001-2013
</metadata>
<g transform="translate(0.000000,720.000000) scale(0.100000,-0.100000)"
fill="#000000" stroke="none">
<path d="M588 7193 c-3 -5 -4 -1623 -3 -3598 1 -3127 3 -3590 16 -3587 7 2 28
10 44 17 17 8 318 134 670 280 352 146 649 270 660 275 20 9 154 66 325 137
47 19 99 41 115 48 25 11 1225 512 2435 1017 184 77 349 146 365 153 17 7 111
47 210 88 418 173 552 230 590 246 22 10 163 69 313 131 149 63 272 116 272
120 0 3 -48 41 -107 85 -58 44 -111 85 -117 90 -6 6 -85 68 -176 138 -190 147
-196 152 -310 241 -47 37 -92 72 -100 79 -8 7 -33 26 -55 42 -22 16 -42 32
-45 35 -3 3 -75 59 -160 125 -85 66 -157 122 -160 125 -4 4 -48 38 -106 81 -7
6 -22 -26 -44 -89 -95 -277 -256 -541 -458 -753 -77 -81 -212 -201 -272 -242
-221 -150 -364 -225 -562 -293 -292 -100 -669 -135 -953 -89 -67 11 -104 18
-163 29 -124 25 -325 97 -464 167 -453 227 -788 586 -995 1064 -49 112 -110
333 -128 460 -4 28 -10 59 -12 70 -3 11 -7 112 -8 225 -3 226 4 304 50 515 35
165 141 421 243 590 154 254 394 500 639 657 45 29 82 55 82 58 0 3 -119 97
-265 210 -146 113 -275 213 -287 222 -12 10 -242 189 -512 399 -269 210 -507
394 -527 410 -20 16 -38 26 -40 22z"/>
<path d="M3265 5285 c-177 -31 -305 -162 -349 -355 -12 -51 -15 -155 -16 -522
l0 -458 88 1 88 1 -1 431 c0 525 3 553 67 643 26 37 89 82 128 92 41 10 158 3
191 -11 46 -20 103 -80 128 -133 20 -42 37 -138 36 -208 0 -34 -4 -40 -25 -46
-14 -3 -121 -5 -237 -4 l-213 1 0 -84 0 -83 235 0 c181 0 235 -3 236 -12 1 -7
2 -141 3 -298 l1 -285 88 -3 87 -3 1 38 c3 188 -1 848 -5 884 -13 107 -71 239
-130 295 -108 103 -249 145 -401 119z"/>
<path d="M1888 5280 c-48 -9 -84 -33 -105 -73 -15 -29 -16 -89 -17 -642 l0
-610 87 -3 87 -3 1 43 c0 24 1 267 1 541 1 273 2 497 4 497 2 0 28 -51 58
-112 30 -62 99 -205 154 -318 54 -113 139 -286 187 -385 48 -99 98 -195 112
-214 62 -81 203 -81 252 0 18 30 19 57 20 650 l0 619 -89 0 -90 0 -2 -527 -3
-528 -39 80 c-21 44 -67 139 -101 210 -34 72 -107 222 -162 335 -55 113 -108
224 -119 245 -34 74 -86 154 -108 168 -34 23 -87 34 -128 27z"/>
<path d="M3997 5263 c-2 -5 -3 -300 -3 -658 l1 -650 89 0 89 0 -1 645 c0 355
-1 651 -1 658 -1 13 -167 18 -174 5z"/>
<path d="M4911 5259 c-124 -24 -235 -78 -326 -157 -21 -19 -101 -109 -112
-127 -7 -11 -26 -46 -43 -77 -115 -218 -84 -515 75 -713 130 -162 286 -229
547 -234 l138 -2 0 84 0 84 -97 -1 c-195 -2 -307 36 -409 139 -147 148 -182
380 -88 574 85 173 250 269 477 276 56 2 105 4 110 4 4 1 7 37 7 81 l0 80
-117 -1 c-65 -1 -138 -5 -162 -10z"/>
<path d="M5528 5255 c-153 -42 -238 -156 -234 -315 4 -165 76 -243 350 -381
201 -101 255 -137 284 -189 28 -48 32 -87 15 -143 -16 -54 -61 -91 -128 -103
-21 -4 -150 -7 -286 -7 l-247 0 -1 -84 -1 -83 288 3 c158 2 297 6 309 10 87
23 163 77 205 145 55 88 63 237 18 330 -51 106 -119 158 -365 278 -126 62
-171 90 -212 131 -50 49 -53 54 -53 104 0 62 27 111 73 136 27 14 70 17 272
19 132 1 245 2 250 3 6 1 10 35 10 81 l0 80 -250 -1 c-172 -1 -265 -5 -297
-14z"/>
</g>
</svg>
